<?xml version="1.0" standalone="no"?>
<!DOCTYPE svg PUBLIC "-//W3C//DTD SVG 20010904//EN" "http://www.w3.org/TR/2001/REC-SVG-20010904/DTD/svg10.dtd">
<svg version="1.0" xmlns="http://www.w3.org/2000/svg" width="1080.000000pt" height="1080.000000pt" viewBox="0 0 1080.000000 1080.000000" preserveAspectRatio="xMidYMid meet">
	<metadata>
		Created by potrace 1.14, written by Peter Selinger 2001-2017
	</metadata>
	<g transform="translate(0.000000,1080.000000) scale(0.100000,-0.100000)" fill="#000000" stroke="none">
		<path d="M5335 10630 c-2 -3 -460 -4 -1019 -4 -559 1 -1019 -3 -1022 -7 -3 -5
-158 -9 -344 -9 -215 0 -341 -4 -345 -10 -4 -6 -73 -10 -175 -10 -102 0 -171
-4 -175 -10 -3 -5 -17 -10 -30 -10 -13 0 -27 -4 -30 -10 -3 -5 -37 -10 -74
-10 -37 0 -71 -4 -76 -9 -10 -9 -39 -14 -180 -29 -42 -5 -85 -17 -108 -30 -21
-12 -54 -22 -77 -22 -21 0 -42 -4 -45 -10 -3 -5 -21 -10 -40 -10 -18 0 -50 -9
-72 -19 -21 -10 -58 -25 -83 -32 -25 -7 -64 -23 -88 -36 -23 -13 -49 -23 -57
-23 -8 0 -30 -9 -50 -20 -20 -11 -42 -20 -50 -20 -8 0 -15 -4 -15 -10 0 -5
-28 -24 -61 -42 -83 -44 -96 -52 -117 -71 -10 -10 -22 -17 -26 -17 -4 0 -32
-20 -60 -45 -29 -25 -56 -45 -60 -45 -14 0 -176 -165 -182 -185 -4 -11 -24
-35 -45 -53 -22 -19 -39 -42 -39 -51 0 -10 -9 -26 -20 -36 -12 -11 -28 -35
-37 -54 -9 -20 -23 -44 -31 -53 -19 -23 -112 -208 -112 -224 0 -7 -9 -29 -20
-49 -11 -20 -20 -44 -20 -55 0 -10 -5 -22 -10 -25 -6 -3 -10 -19 -10 -35 0
-16 -4 -32 -10 -35 -5 -3 -10 -17 -10 -30 0 -13 -4 -26 -9 -29 -12 -8 -41 -99
-41 -130 0 -14 -5 -28 -10 -31 -6 -3 -10 -26 -10 -50 0 -24 -5 -47 -10 -50 -6
-3 -10 -24 -10 -45 0 -21 -5 -42 -10 -45 -6 -3 -10 -33 -10 -65 0 -32 -4 -62
-10 -65 -5 -3 -10 -35 -10 -71 0 -45 -5 -73 -17 -91 -17 -26 -18 -183 -21
-2892 -2 -1952 1 -2868 8 -2875 5 -5 10 -59 11 -120 0 -61 5 -133 10 -161 5
-27 14 -81 19 -120 34 -272 39 -304 76 -475 13 -63 31 -127 39 -141 8 -14 19
-48 25 -75 6 -27 17 -63 25 -79 8 -17 20 -53 26 -80 7 -28 19 -57 26 -66 7 -8
13 -23 13 -33 0 -10 11 -32 25 -50 14 -18 25 -38 25 -43 0 -14 53 -116 80
-153 11 -15 20 -33 20 -38 0 -5 7 -12 15 -16 8 -3 15 -12 15 -19 0 -8 9 -22
20 -32 11 -10 20 -23 20 -28 0 -6 26 -38 57 -71 32 -34 84 -89 115 -124 32
-34 61 -62 66 -62 4 0 37 -29 72 -65 35 -36 69 -65 75 -65 6 0 26 -16 45 -35
19 -19 39 -35 45 -35 7 0 20 -9 30 -20 10 -11 23 -20 30 -20 7 0 20 -9 30 -20
10 -11 23 -20 30 -20 21 0 76 -32 88 -51 6 -10 17 -19 24 -19 7 0 28 -9 48
-20 20 -11 42 -20 50 -20 9 0 23 -4 33 -9 9 -5 34 -17 54 -25 20 -9 40 -21 43
-26 3 -6 17 -10 30 -10 13 0 27 -4 30 -10 3 -5 17 -10 30 -10 13 0 27 -4 30
-10 3 -5 19 -10 35 -10 16 0 32 -4 35 -10 3 -5 21 -10 40 -10 19 0 37 -4 40
-10 3 -5 24 -10 45 -10 21 0 42 -4 45 -10 3 -5 21 -10 39 -10 17 0 37 -5 44
-12 12 -12 81 -26 172 -35 30 -2 59 -9 65 -14 5 -5 44 -9 86 -9 43 0 81 -4 84
-10 3 -6 48 -10 100 -10 52 0 97 -4 100 -10 4 -6 61 -10 139 -10 82 0 136 -4
143 -11 8 -8 319 -11 1059 -12 l1049 -2 3 40 c2 35 -1 42 -25 53 -15 6 -32 12
-38 12 -7 0 -20 9 -30 20 -10 11 -24 20 -30 20 -7 0 -18 6 -24 14 -11 13 -39
19 -171 32 -30 3 -59 10 -65 15 -5 5 -39 9 -76 9 -37 0 -71 5 -74 10 -3 6 -24
10 -45 10 -21 0 -42 5 -45 10 -3 6 -21 10 -40 10 -19 0 -37 5 -40 10 -3 6 -21
10 -40 10 -20 0 -50 10 -71 25 -20 14 -49 25 -64 25 -16 0 -45 8 -67 19 -160
78 -196 97 -210 113 -9 10 -21 18 -28 18 -7 0 -20 9 -30 20 -10 11 -24 20 -31
20 -18 0 -224 204 -224 222 0 8 -9 23 -20 33 -11 10 -20 23 -20 30 0 7 -8 19
-18 28 -10 9 -28 37 -40 61 -12 24 -29 49 -37 56 -8 7 -15 23 -15 36 0 13 -9
39 -20 59 -11 20 -20 44 -20 55 0 10 -4 22 -10 25 -5 3 -10 16 -10 27 0 12 -6
29 -14 37 -8 9 -21 48 -29 86 -9 39 -23 96 -31 128 -9 32 -16 72 -16 89 0 31
-12 114 -32 223 -26 143 -30 215 -28 475 2 233 0 278 -13 295 -14 18 -15 173
-10 1380 4 1121 7 1367 19 1400 9 28 15 116 19 295 6 299 12 408 25 435 9 19
13 54 26 220 3 39 10 74 15 80 5 5 9 19 9 31 0 13 5 26 10 29 6 3 10 28 10 55
0 27 5 52 10 55 6 3 10 16 10 28 0 12 7 31 15 41 8 11 15 30 15 42 0 13 5 26
10 29 6 3 10 15 10 25 0 11 9 35 20 55 11 20 20 44 20 54 0 10 7 24 15 31 9 7
27 37 41 66 13 28 31 55 39 58 8 3 15 14 15 24 0 10 9 27 20 37 11 10 20 23
20 29 0 15 192 206 206 206 6 0 19 9 29 20 10 11 27 20 37 20 10 0 21 7 24 15
3 8 30 26 58 39 29 14 59 32 66 41 7 8 21 15 31 15 10 0 34 9 54 20 20 11 44
20 55 20 10 0 22 5 25 10 3 6 16 10 29 10 12 0 31 7 42 15 10 8 29 15 41 15
12 0 25 5 28 10 3 6 28 10 55 10 27 0 52 5 55 10 3 6 16 10 29 10 12 0 26 4
31 9 6 5 42 12 80 14 94 7 187 22 260 42 97 27 591 36 2088 41 1179 4 1371 2
1390 -10 17 -12 82 -16 302 -20 319 -7 436 -14 450 -27 5 -5 39 -9 76 -9 37 0
71 -4 74 -10 3 -5 37 -10 75 -10 38 0 72 -4 75 -10 3 -5 17 -10 30 -10 13 0
27 -4 30 -10 3 -5 28 -10 55 -10 27 0 52 -4 55 -10 3 -5 16 -10 28 -10 12 0
31 -7 41 -15 11 -8 30 -15 42 -15 13 0 26 -4 29 -10 3 -5 15 -10 25 -10 11 0
35 -9 55 -20 20 -11 44 -20 54 -20 10 0 24 -7 31 -15 7 -9 36 -26 64 -39 29
-13 58 -31 65 -40 7 -9 19 -16 26 -16 6 0 20 -9 30 -20 10 -11 23 -20 29 -20
15 0 206 -192 206 -206 0 -6 9 -19 20 -29 11 -10 20 -24 20 -30 0 -7 7 -18 15
-25 22 -18 135 -252 135 -279 0 -13 11 -44 24 -70 13 -25 28 -73 34 -105 11
-57 34 -96 56 -96 15 0 66 -52 66 -67 0 -15 40 -33 71 -33 19 0 19 12 15 788
-3 433 -9 848 -15 922 -6 74 -13 178 -17 230 -3 52 -10 99 -15 104 -5 6 -9 40
-9 77 0 37 -4 71 -10 74 -5 3 -10 33 -10 65 0 32 -4 62 -10 65 -5 3 -10 21
-10 40 0 19 -4 37 -10 40 -5 3 -10 24 -10 45 0 22 -4 49 -9 62 -4 13 -16 50
-26 83 -9 33 -21 68 -26 77 -5 10 -9 31 -9 47 0 17 -4 33 -10 36 -5 3 -10 19
-10 35 0 16 -4 32 -10 35 -5 3 -10 15 -10 25 0 11 -9 35 -20 55 -11 20 -20 42
-20 49 0 15 -71 158 -90 181 -8 9 -23 34 -34 55 -12 21 -39 64 -61 96 -22 31
-45 66 -51 76 -6 11 -26 33 -43 50 -17 17 -31 35 -31 41 0 24 -313 327 -338
327 -4 0 -21 14 -37 30 -16 17 -33 30 -38 30 -4 0 -28 14 -52 30 -24 17 -50
30 -58 30 -8 0 -22 9 -32 20 -10 11 -30 26 -44 33 -14 7 -35 18 -46 24 -64 34
-109 53 -125 53 -9 0 -47 16 -84 35 -37 19 -76 35 -87 35 -11 0 -27 4 -37 9
-31 15 -88 31 -115 31 -14 0 -29 5 -32 10 -3 6 -24 10 -45 10 -21 0 -42 5 -45
10 -3 6 -21 10 -39 10 -19 0 -39 7 -46 15 -8 10 -31 15 -66 15 -29 0 -56 5
-59 10 -3 6 -34 10 -69 10 -34 0 -66 4 -72 9 -5 5 -43 12 -84 15 -41 3 -122
10 -180 15 -58 6 -159 13 -225 17 -66 3 -124 10 -129 15 -6 5 -211 9 -466 9
-278 0 -460 4 -466 10 -9 9 -1643 20 -1649 10z" />
		<path d="M7140 5313 c-63 -2 -119 -8 -124 -13 -6 -6 -40 -10 -77 -10 -37 0
-71 -4 -74 -10 -3 -5 -33 -10 -65 -10 -32 0 -62 -4 -65 -10 -3 -5 -21 -10 -40
-10 -19 0 -37 -4 -40 -10 -3 -5 -17 -10 -29 -10 -13 0 -29 -7 -36 -15 -7 -8
-28 -15 -46 -15 -18 0 -49 -9 -69 -20 -20 -11 -42 -20 -50 -20 -9 0 -23 -4
-33 -9 -9 -5 -38 -19 -65 -32 -26 -12 -52 -28 -58 -36 -6 -7 -17 -13 -24 -13
-65 0 -289 -195 -413 -360 -70 -92 -175 -289 -202 -380 -7 -25 -17 -49 -22
-55 -4 -5 -8 -17 -8 -28 0 -10 -11 -52 -25 -93 -14 -41 -25 -82 -25 -92 0 -10
-4 -22 -9 -27 -9 -10 -16 -59 -27 -190 -3 -38 -10 -81 -17 -94 -18 -36 -17
-2105 1 -2123 7 -7 12 -39 12 -79 0 -37 5 -71 10 -74 6 -3 10 -28 10 -55 0
-27 4 -51 9 -54 5 -3 12 -26 15 -51 4 -24 11 -47 17 -50 5 -4 9 -26 9 -50 0
-24 5 -47 10 -50 6 -3 10 -17 10 -30 0 -13 5 -27 10 -30 6 -3 10 -17 10 -30 0
-14 9 -40 20 -60 11 -20 20 -44 20 -55 0 -21 28 -74 64 -124 13 -17 30 -47 39
-67 9 -20 23 -42 32 -49 8 -7 15 -19 15 -26 0 -7 20 -32 45 -55 25 -23 45 -46
45 -51 0 -20 42 -68 59 -68 10 0 42 -25 70 -55 29 -30 58 -55 65 -55 7 0 21
-9 31 -20 10 -11 23 -20 30 -20 7 0 20 -9 30 -20 10 -11 26 -20 35 -20 10 0
23 -6 29 -13 6 -8 32 -24 58 -36 27 -13 56 -27 65 -32 10 -5 24 -9 33 -9 8 0
30 -9 50 -20 20 -11 50 -20 67 -20 17 0 39 -6 47 -14 15 -12 50 -20 216 -48
33 -5 67 -16 76 -24 8 -8 28 -14 42 -14 15 0 36 -5 47 -10 11 -6 29 -14 40
-20 11 -5 35 -10 54 -10 18 0 47 -7 62 -15 43 -22 1940 -23 1970 0 13 10 44
14 96 15 42 0 80 5 83 10 3 6 37 10 75 10 38 0 72 5 75 10 3 6 28 10 55 10 27
0 52 5 55 10 3 6 28 10 55 10 27 0 52 4 55 10 3 5 19 10 36 10 16 0 37 4 47 8
9 5 32 16 50 25 19 9 40 17 48 17 8 0 22 4 32 9 73 36 106 51 116 51 19 0 72
28 86 45 7 8 36 26 65 41 29 14 61 34 71 45 9 10 22 19 28 19 15 0 196 182
196 196 0 6 9 19 19 28 11 10 31 42 45 71 15 29 33 58 41 65 17 14 45 67 45
86 0 10 15 43 51 116 5 10 9 24 9 32 0 8 8 29 17 48 9 18 20 41 25 50 4 10 8
31 8 47 0 17 5 33 10 36 6 3 10 28 10 55 0 27 5 52 10 55 6 3 10 28 10 55 0
27 5 52 10 55 6 3 10 37 10 75 0 38 5 72 10 75 6 3 10 41 10 83 1 52 5 83 15
96 23 30 22 1917 0 1936 -10 8 -15 31 -15 66 0 29 -4 56 -10 59 -5 3 -10 24
-10 45 0 21 -4 42 -10 45 -5 3 -10 26 -10 50 0 29 -5 45 -15 49 -11 4 -15 20
-15 55 0 27 -4 53 -10 56 -5 3 -10 21 -10 40 0 19 -4 37 -10 40 -5 3 -10 21
-10 39 0 19 -7 39 -15 46 -8 7 -15 23 -15 36 0 13 -9 39 -20 59 -11 20 -20 42
-20 50 0 9 -4 23 -9 33 -5 9 -19 38 -32 65 -12 26 -28 52 -36 58 -7 6 -13 19
-13 29 0 9 -9 25 -20 35 -11 10 -20 23 -20 30 0 7 -9 20 -20 30 -11 10 -20 24
-20 31 0 7 -25 36 -55 65 -30 28 -55 60 -55 70 0 17 -48 59 -68 59 -5 0 -28
20 -51 45 -23 25 -48 45 -55 45 -7 0 -19 7 -26 15 -7 9 -29 23 -49 32 -20 9
-50 26 -67 39 -50 36 -103 64 -124 64 -11 0 -35 9 -55 20 -20 11 -46 20 -60
20 -13 0 -27 5 -30 10 -3 6 -17 10 -29 10 -13 0 -29 7 -36 15 -7 8 -27 15 -46
15 -18 0 -36 5 -39 10 -3 6 -21 10 -40 10 -19 0 -37 5 -40 10 -3 6 -33 10 -65
10 -32 0 -62 5 -65 10 -3 6 -32 10 -64 10 -32 0 -62 5 -69 13 -10 9 -221 12
-980 13 -532 0 -1019 -1 -1082 -3z m1225 -891 c28 -6 70 -14 95 -17 65 -10
304 -90 380 -128 203 -100 314 -180 475 -341 121 -121 202 -222 269 -336 88
-148 176 -374 206 -525 6 -33 16 -79 21 -102 5 -23 9 -68 10 -100 0 -32 4 -83
9 -113 9 -58 -3 -256 -21 -350 -45 -232 -108 -400 -230 -617 -75 -134 -258
-338 -408 -457 -73 -58 -237 -166 -252 -166 -4 0 -54 -22 -111 -49 -118 -56
-222 -89 -410 -130 -220 -48 -579 -25 -833 55 -83 26 -295 125 -380 178 -118
72 -270 191 -347 271 -70 73 -148 170 -148 186 0 5 -19 37 -43 71 -111 163
-206 403 -251 633 -49 256 -43 488 19 736 15 57 30 122 34 144 5 22 21 72 36
110 128 313 391 625 680 805 85 53 255 131 375 171 124 42 155 49 300 69 41 6
77 13 80 16 8 9 391 -4 445 -14z" />
		<path d="M7915 3505 c-5 -2 -37 -11 -70 -21 -33 -9 -67 -23 -76 -31 -8 -7 -23
-13 -31 -13 -9 0 -21 -6 -27 -14 -7 -8 -34 -26 -61 -40 -52 -27 -201 -172
-235 -227 -48 -80 -61 -108 -99 -217 -24 -66 -26 -88 -26 -227 0 -102 5 -169
14 -197 7 -24 19 -62 26 -85 7 -24 17 -43 22 -43 4 0 8 -9 8 -20 0 -11 5 -20
10 -20 6 0 10 -7 10 -15 0 -20 36 -82 65 -111 14 -14 25 -29 25 -34 0 -15 106
-115 165 -156 69 -47 69 -47 125 -72 105 -47 107 -47 345 -47 l230 0 58 33
c32 17 63 32 68 32 24 0 150 95 215 162 67 69 144 174 144 197 0 6 8 25 18 43
56 105 68 234 47 493 -4 42 -14 83 -26 103 -10 18 -19 40 -19 48 0 13 -5 26
-29 70 -47 89 -163 222 -235 270 -16 10 -41 27 -55 36 -47 31 -155 81 -196 91
-38 10 -389 20 -410 12z" />
	</g>
</svg>